<?xml version="1.0" standalone="no"?>
<!DOCTYPE svg PUBLIC "-//W3C//DTD SVG 20010904//EN"
 "http://www.w3.org/TR/2001/REC-SVG-20010904/DTD/svg10.dtd">
<svg version="1.0" xmlns="http://www.w3.org/2000/svg"
 width="90mm" height="90mm" viewBox="0 0 250 260"
 preserveAspectRatio="xMidYMid meet">

<g transform="translate(0.000000,277.000000) scale(0.100000,-0.100000)"
fill="#000000" stroke="none">
<path d="M665 2450 c-169 -23 -320 -125 -398 -268 -36 -66 -67 -190 -67 -266
0 -99 36 -202 98 -284 l25 -33 -12 -502 c-18 -789 -19 -717 8 -738 22 -18 60
-19 986 -19 934 0 963 1 986 19 28 22 27 -38 8 762 l-11 476 35 46 c62 81 82
146 82 272 0 89 -5 123 -23 177 -58 170 -178 283 -362 344 -50 17 -106 18
-675 20 -341 1 -647 -2 -680 -6z m1300 -156 c171 -44 285 -183 293 -357 5
-105 -10 -155 -69 -222 -27 -31 -49 -64 -49 -73 0 -9 7 -260 15 -557 8 -297
15 -555 15 -572 l0 -33 -867 0 -866 0 6 263 c4 144 10 409 14 589 l6 327 -46
51 c-61 67 -81 129 -75 229 10 167 127 312 290 355 82 23 1248 23 1333 0z"/>
<path d="M670 2259 c-111 -22 -199 -92 -249 -198 -22 -47 -26 -70 -26 -141 0
-98 14 -133 77 -192 l40 -37 -15 -548 c-15 -585 -15 -586 33 -610 34 -17 1506
-19 1543 -2 14 6 29 21 35 34 7 16 6 191 -5 576 -14 472 -14 554 -2 558 36 11
88 79 104 136 46 158 -46 344 -202 406 l-58 24 -615 2 c-338 1 -635 -3 -660
-8z m1321 -174 c47 -34 78 -85 86 -145 8 -55 -10 -91 -62 -122 -68 -42 -79
-64 -66 -145 5 -37 12 -264 16 -503 3 -239 8 -450 11 -467 l5 -33 -676 0 -677
0 6 173 c20 553 26 908 16 927 -6 10 -30 33 -55 50 -57 39 -69 62 -61 117 11
82 57 144 127 172 15 6 273 9 656 8 l631 -2 43 -30z"/>
</g>
</svg>
